<?xml version="1.0" encoding="UTF-8"?>
<svg id="logosandtypes_com" data-name="logosandtypes com" xmlns="http://www.w3.org/2000/svg" viewBox="0 0 150 150">
  <defs>
    <style>
      .cls-1 {
        fill: none;
      }

      .cls-2 {
        fill-rule: evenodd;
      }
    </style>
  </defs>
  <g id="Layer_3" data-name="Layer 3">
    <g id="Layer_2" data-name="Layer 2">
      <path id="Layer_3-2" data-name="Layer 3-2" class="cls-1" d="M0,0H150V150H0V0Z"/>
    </g>
  </g>
  <path class="cls-2" d="M31.5,14.3c-7.71,.62-14.36,6.26-16.29,13.82-.68,2.68-.59,93.28-.59,93.28,2.59,16.95,24.51,22.48,34,8.25,9.74-14.58,32.4-8.83,33.77,8.57,.07,.89,.08-22.21,.08-22.21-1.92-8.91-8.35-14.75-18.04-15.42-6.73-.52-10.97-3.83-12.35-9.64-.62-2.63-.46-16.79,.24-20.03,5.77-25.36,41.03-25.94,47.82-1.22,.19,.83,.23,.9,.75,1.04,4.61,1.27,18.06,5.17,18.06,5.23-.74,.34-14.73,4.28-17.97,5.21v40.23c3.26,21.29,32.55,21.87,36.86,1.04,.43-2.51,.26-51.43-.2-54.58C132.32,25.56,85.21,1.4,47.77,21.16c-4.03-4.78-9.77-7.42-16.28-6.86"/>
  <path class="cls-2" d="M73.08,65.86c-10.63,2.44-13.25,16.62-4.15,22.5,9.16,5.92,20.92-1.87,19.05-12.62-1.17-6.73-8.22-11.41-14.89-9.88"/>
</svg>